<svg id="Layer_1" data-name="Layer 1" xmlns="http://www.w3.org/2000/svg" width="1920" height="1208.04" viewBox="0 0 1920 1208.04"><defs><style>.cls-1{fill:none;stroke:#231f20;stroke-miterlimit:10;stroke-width:2px;}</style></defs><g id="Layer_11" data-name="Layer 11"><path id="tongs" class="cls-1" d="M322.25,784.38,318,1005.47l-210.36-2.15,4.29-446.47S62.52,423.76,182.73,368s195.33,40.79,195.33,40.79l2.15,158.84-201.77-4.29-2.15,221.09Z"/></g><g id="Layer_10" data-name="Layer 10"><polygon id="immigration" class="cls-1" points="189.17 578.31 189.17 744.05 339.05 748.37 337.63 1102.33 475.79 1102.33 478.09 948.05 383.68 948.05 381.38 745.41 404.4 745.41 404.4 660.22 351.44 579.62 189.17 578.31"/></g><g id="Layer_9" data-name="Layer 9"><polygon id="clinton" class="cls-1" points="381.38 586.53 411.31 641.79 489.6 664.82 554.08 648.7 542.57 517.45 482.7 476 498.81 418.43 429.73 386.19 427.43 300.99 551.78 298.69 554.08 98.36 379.07 91.45 402.1 540.48 381.38 586.53"/></g><g id="Layer_8" data-name="Layer 8"><polygon id="fuzhou" class="cls-1" points="420.52 683.24 415.92 805.28 556.38 809.89 558.68 1086.21 655.4 1086.21 807.38 966.47 802.77 920.42 625.46 915.82 604.74 630.28 420.52 683.24"/></g><g id="Layer_7" data-name="Layer 7"><polygon id="_911" data-name="911" class="cls-1" points="646.19 26.97 646.19 206.58 572.5 208.89 570.2 533.57 593.23 563.5 620.86 616.46 632.37 779.96 791.26 779.96 791.26 383.89 848.83 370.07 852.25 176.47 853.43 109.87 722.18 22.37 646.19 26.97"/></g><g id="Layer_6" data-name="Layer 6"><polygon id="sars" class="cls-1" points="864.18 196.46 862.03 400.62 798.63 413.52 796.48 757.38 833.02 757.38 833.02 626.28 920.06 628.43 973.79 541.39 972.71 426.41 906.09 417.82 910.39 359.79 1007.1 363.01 1004.95 190.01 864.18 196.46"/></g><g id="Layer_5" data-name="Layer 5"><polygon id="Imbruce" class="cls-1" points="848.06 640.25 851.29 808.96 906.09 815.41 903.94 1094.79 995.28 1094.79 994.2 1020.65 1166.13 1020.65 1165.06 913.19 951.22 908.89 944.77 814.33 963.04 814.33 960.89 639.18 848.06 640.25"/></g><g id="Layer_4" data-name="Layer 4"><polygon id="soho_ct_gentrification" class="cls-1" points="1014.17 53.09 1014.17 500.14 970.75 638.43 969.14 861.95 1027.03 894.11 1068.84 894.11 1149.25 730.09 1163.72 599.84 1110.65 586.97 1109.05 492.1 1075.28 254.1 1205.53 258.93 1213.57 149.58 1112.26 49.88 1014.17 53.09"/></g><g id="Layer_3" data-name="Layer 3"><polygon id="trade_war" class="cls-1" points="1221.61 196.21 1221.61 487.27 1308.45 588.58 1474.08 593.4 1464.43 363.45 1361.51 361.84 1388.85 289.48 1306.84 194.6 1221.61 196.21"/></g><g id="Layer_2" data-name="Layer 2"><polygon id="congestion_pricing" class="cls-1" points="1679.91 300.74 1681.52 503.35 1562.52 514.61 1554.48 744.56 1675.09 812.1 1737.8 847.48 1782.83 845.87 1797.3 453.5 1843.93 410.08 1834.28 287.87 1679.91 300.74"/></g></svg>